<svg xmlns="http://www.w3.org/2000/svg" viewBox="0 0 512 512">
  <defs>
    <style>
      .cls-1 { fill: #d97757; }
    </style>
  </defs>
  <!-- Left Pillar -->
  <rect class="cls-1" x="80" y="64" width="100" height="384" rx="24" />
  
  <!-- Right Pillar -->
  <rect class="cls-1" x="332" y="64" width="100" height="384" rx="24" />
  
  <!-- Speech Bubble Crossbar -->
  <!-- Represents the connection/interview. A rounded rect connecting the pillars with a subtle tail feeling -->
  <path class="cls-1" d="M180 216 h152 v80 h-152 z" />
  <path class="cls-1" d="M256 196 c-44 0 -80 24 -80 60 v60 c0 36 36 60 80 60 s80 -24 80 -60 v-60 c0 -36 -36 -60 -80 -60 z M220 286 l-20 20 v-40 z" />
  
  <!-- Cleaned up composite shape for the crossbar/speech bubble -->
  <path class="cls-1" d="M210 236 a 20 20 0 0 0 -20 20 v56 a 20 20 0 0 0 20 20 h92 a 20 20 0 0 0 20 -20 v-56 a 20 20 0 0 0 -20 -20 z" />
  <!-- Bridge connections to pillars to ensure it looks like an H -->
  <rect class="cls-1" x="170" y="246" width="40" height="60" />
  <rect class="cls-1" x="302" y="246" width="40" height="60" />
</svg>
